<svg width="25" height="26" viewBox="0 0 25 26" fill="none" xmlns="http://www.w3.org/2000/svg">
<path d="M8.49121 20.0437C8.49121 20.1414 8.37891 20.2195 8.2373 20.2195C8.07617 20.2341 7.96387 20.156 7.96387 20.0437C7.96387 19.946 8.07617 19.8679 8.21777 19.8679C8.36426 19.8533 8.49121 19.9314 8.49121 20.0437ZM6.97266 19.824C6.93848 19.9216 7.03613 20.0339 7.18262 20.0632C7.30957 20.1121 7.45605 20.0632 7.48535 19.9656C7.51465 19.8679 7.42188 19.7556 7.27539 19.7117C7.14844 19.6775 7.00684 19.7263 6.97266 19.824ZM9.13086 19.741C8.98926 19.7751 8.8916 19.8679 8.90625 19.9802C8.9209 20.0779 9.04785 20.1414 9.19434 20.1072C9.33594 20.073 9.43359 19.9802 9.41895 19.8826C9.4043 19.7898 9.27246 19.7263 9.13086 19.741ZM12.3438 1.03003C5.57129 1.03003 0.390625 6.17163 0.390625 12.9441C0.390625 18.3591 3.79883 22.9929 8.66699 24.6238C9.29199 24.7361 9.51172 24.3503 9.51172 24.033C9.51172 23.7302 9.49707 22.0603 9.49707 21.0349C9.49707 21.0349 6.0791 21.7673 5.36133 19.5798C5.36133 19.5798 4.80469 18.1589 4.00391 17.7927C4.00391 17.7927 2.88574 17.0261 4.08203 17.0408C4.08203 17.0408 5.29785 17.1384 5.9668 18.3005C7.03613 20.1853 8.82813 19.6433 9.52637 19.321C9.63867 18.5398 9.95605 17.9978 10.3076 17.6755C7.57813 17.3728 4.82422 16.9773 4.82422 12.28C4.82422 10.9373 5.19531 10.2634 5.97656 9.40405C5.84961 9.08667 5.43457 7.77808 6.10352 6.08862C7.12402 5.77124 9.47266 7.40698 9.47266 7.40698C10.4492 7.13355 11.499 6.99194 12.5391 6.99194C13.5791 6.99194 14.6289 7.13355 15.6055 7.40698C15.6055 7.40698 17.9541 5.76636 18.9746 6.08862C19.6436 7.78296 19.2285 9.08667 19.1016 9.40405C19.8828 10.2683 20.3613 10.9421 20.3613 12.28C20.3613 16.9919 17.4854 17.3679 14.7559 17.6755C15.2051 18.0613 15.5859 18.7937 15.5859 19.9412C15.5859 21.5867 15.5713 23.6228 15.5713 24.0232C15.5713 24.3406 15.7959 24.7263 16.416 24.614C21.2988 22.9929 24.6094 18.3591 24.6094 12.9441C24.6094 6.17163 19.1162 1.03003 12.3438 1.03003ZM5.13672 17.8708C5.07324 17.9197 5.08789 18.032 5.1709 18.1248C5.24902 18.2029 5.36133 18.2371 5.4248 18.1736C5.48828 18.1248 5.47363 18.0125 5.39063 17.9197C5.3125 17.8416 5.2002 17.8074 5.13672 17.8708ZM4.60938 17.4753C4.5752 17.5388 4.62402 17.6169 4.72168 17.6658C4.7998 17.7146 4.89746 17.7 4.93164 17.6316C4.96582 17.5681 4.91699 17.49 4.81934 17.4412C4.72168 17.4119 4.64355 17.4265 4.60938 17.4753ZM6.19141 19.2136C6.11328 19.2771 6.14258 19.4236 6.25488 19.5164C6.36719 19.6287 6.50879 19.6433 6.57227 19.5652C6.63574 19.5017 6.60645 19.3552 6.50879 19.2625C6.40137 19.1501 6.25488 19.1355 6.19141 19.2136ZM5.63477 18.4959C5.55664 18.5447 5.55664 18.6716 5.63477 18.7839C5.71289 18.8962 5.84473 18.9451 5.9082 18.8962C5.98633 18.8328 5.98633 18.7058 5.9082 18.5935C5.83984 18.4812 5.71289 18.4324 5.63477 18.4959Z" fill="black"/>
</svg>
