<svg width="45" height="58" viewBox="0 0 45 58" fill="none" xmlns="http://www.w3.org/2000/svg">
<path d="M0 41V56C0 57.009 1.22 58 2.463 58H42.537C43.78 58 45 57.009 45 56V41H0ZM12.96 50.664C13.092 51.147 13.274 51.541 13.507 51.847C13.74 52.153 14.004 52.375 14.3 52.517C14.596 52.659 14.908 52.729 15.237 52.729C15.566 52.729 15.873 52.669 16.16 52.551C16.447 52.433 16.709 52.241 16.946 51.977L18.081 52.975C17.707 53.339 17.283 53.613 16.81 53.795C16.337 53.977 15.826 54.068 15.279 54.068C14.677 54.068 14.124 53.959 13.618 53.74C13.112 53.521 12.67 53.198 12.292 52.769C11.914 52.34 11.617 51.803 11.403 51.156C11.189 50.509 11.082 49.761 11.082 48.914C11.082 48.067 11.189 47.321 11.403 46.679C11.617 46.036 11.914 45.501 12.292 45.073C12.67 44.645 13.114 44.319 13.625 44.095C14.136 43.871 14.687 43.76 15.279 43.76C15.826 43.76 16.337 43.851 16.81 44.033C17.283 44.215 17.707 44.489 18.081 44.853L16.946 45.865C16.718 45.6 16.466 45.409 16.187 45.291C15.908 45.173 15.62 45.113 15.319 45.113C14.982 45.113 14.661 45.176 14.355 45.304C14.049 45.432 13.776 45.648 13.535 45.953C13.294 46.258 13.104 46.652 12.968 47.136C12.832 47.62 12.758 48.211 12.749 48.913C12.757 49.598 12.828 50.181 12.96 50.664ZM25.907 52.298C25.757 52.64 25.545 52.941 25.271 53.2C24.997 53.459 24.661 53.667 24.259 53.822C23.857 53.977 23.403 54.054 22.892 54.054C22.673 54.054 22.448 54.042 22.215 54.02C21.982 53.998 21.748 53.958 21.511 53.904C21.274 53.85 21.048 53.774 20.834 53.678C20.62 53.582 20.436 53.466 20.28 53.329L20.567 52.153C20.695 52.226 20.856 52.297 21.052 52.365C21.248 52.433 21.45 52.497 21.66 52.556C21.87 52.615 22.079 52.663 22.289 52.7C22.499 52.737 22.694 52.755 22.877 52.755C23.433 52.755 23.859 52.625 24.155 52.365C24.451 52.105 24.599 51.72 24.599 51.21C24.599 50.9 24.495 50.636 24.285 50.417C24.075 50.198 23.813 50 23.499 49.822C23.185 49.644 22.845 49.467 22.48 49.289C22.115 49.111 21.774 48.901 21.455 48.66C21.136 48.419 20.872 48.134 20.662 47.806C20.452 47.478 20.348 47.068 20.348 46.576C20.348 46.13 20.43 45.733 20.594 45.387C20.758 45.041 20.979 44.746 21.257 44.505C21.535 44.264 21.859 44.079 22.228 43.951C22.597 43.823 22.987 43.76 23.397 43.76C23.816 43.76 24.24 43.799 24.668 43.876C25.096 43.953 25.442 44.079 25.707 44.252C25.652 44.37 25.589 44.5 25.516 44.642C25.443 44.784 25.374 44.915 25.311 45.038C25.248 45.161 25.193 45.264 25.147 45.346C25.101 45.428 25.074 45.474 25.065 45.483C25.01 45.456 24.949 45.42 24.88 45.374C24.811 45.328 24.714 45.283 24.586 45.237C24.458 45.191 24.29 45.16 24.08 45.141C23.87 45.122 23.601 45.127 23.273 45.155C23.09 45.174 22.918 45.225 22.753 45.312C22.588 45.399 22.443 45.505 22.315 45.633C22.187 45.761 22.087 45.904 22.014 46.064C21.941 46.224 21.905 46.377 21.905 46.522C21.905 46.886 22.009 47.18 22.219 47.404C22.429 47.628 22.689 47.823 22.998 47.992C23.307 48.161 23.645 48.325 24.01 48.484C24.375 48.643 24.714 48.838 25.029 49.065C25.344 49.292 25.605 49.578 25.815 49.919C26.025 50.26 26.129 50.7 26.129 51.238C26.133 51.603 26.058 51.956 25.907 52.298ZM33.317 52.298C33.167 52.64 32.955 52.941 32.681 53.2C32.407 53.459 32.071 53.667 31.669 53.822C31.267 53.977 30.813 54.054 30.302 54.054C30.083 54.054 29.858 54.042 29.625 54.02C29.392 53.998 29.158 53.958 28.921 53.904C28.684 53.85 28.458 53.774 28.244 53.678C28.03 53.582 27.846 53.466 27.69 53.329L27.977 52.153C28.105 52.226 28.266 52.297 28.462 52.365C28.658 52.433 28.86 52.497 29.07 52.556C29.28 52.615 29.489 52.663 29.699 52.7C29.909 52.737 30.104 52.755 30.287 52.755C30.843 52.755 31.269 52.625 31.565 52.365C31.861 52.105 32.009 51.72 32.009 51.21C32.009 50.9 31.905 50.636 31.695 50.417C31.485 50.198 31.223 50 30.909 49.822C30.595 49.644 30.255 49.467 29.89 49.289C29.525 49.111 29.184 48.901 28.865 48.66C28.546 48.419 28.282 48.134 28.072 47.806C27.862 47.478 27.758 47.068 27.758 46.576C27.758 46.13 27.84 45.733 28.004 45.387C28.168 45.041 28.389 44.746 28.667 44.505C28.945 44.264 29.269 44.079 29.638 43.951C30.007 43.823 30.397 43.76 30.807 43.76C31.226 43.76 31.65 43.799 32.078 43.876C32.506 43.953 32.852 44.079 33.117 44.252C33.062 44.37 32.999 44.5 32.926 44.642C32.853 44.784 32.784 44.915 32.721 45.038C32.658 45.161 32.603 45.264 32.557 45.346C32.511 45.428 32.484 45.474 32.475 45.483C32.42 45.456 32.359 45.42 32.29 45.374C32.221 45.328 32.124 45.283 31.996 45.237C31.868 45.191 31.7 45.16 31.49 45.141C31.28 45.122 31.011 45.127 30.683 45.155C30.5 45.174 30.328 45.225 30.163 45.312C29.998 45.399 29.853 45.505 29.725 45.633C29.597 45.761 29.497 45.904 29.424 46.064C29.351 46.224 29.315 46.377 29.315 46.522C29.315 46.886 29.419 47.18 29.629 47.404C29.839 47.628 30.099 47.823 30.408 47.992C30.717 48.161 31.055 48.325 31.42 48.484C31.785 48.643 32.124 48.838 32.439 49.065C32.754 49.292 33.015 49.578 33.225 49.919C33.435 50.26 33.539 50.7 33.539 51.238C33.543 51.603 33.468 51.956 33.317 52.298Z" fill="#374040"/>
<path d="M45 39V13.978C45 13.212 44.908 12.645 44.45 12.186L32.813 0.55C32.464 0.201 31.98 0 31.485 0H2.463C1.277 0 0 0.916 0 2.926V39H45ZM31 3.391C31 2.933 31.553 2.704 31.877 3.028L41.972 13.123C42.296 13.447 42.067 14 41.609 14H31V3.391ZM30 23V19C30 18.449 29.552 18 29 18C28.447 18 28 17.552 28 17C28 16.448 28.447 16 29 16C30.654 16 32 17.346 32 19V23C32 24.103 32.897 25 34 25C34.553 25 35 25.448 35 26C35 26.552 34.553 27 34 27C32.897 27 32 27.897 32 29V33C32 34.654 30.654 36 29 36C28.447 36 28 35.552 28 35C28 34.448 28.447 34 29 34C29.552 34 30 33.551 30 33V29C30 27.8 30.542 26.734 31.382 26C30.542 25.266 30 24.2 30 23ZM10 25C11.103 25 12 24.103 12 23V19C12 17.346 13.346 16 15 16C15.553 16 16 16.448 16 17C16 17.552 15.553 18 15 18C14.448 18 14 18.449 14 19V23C14 24.2 13.458 25.266 12.618 26C13.458 26.734 14 27.8 14 29V33C14 33.551 14.448 34 15 34C15.553 34 16 34.448 16 35C16 35.552 15.553 36 15 36C13.346 36 12 34.654 12 33V29C12 27.897 11.103 27 10 27C9.447 27 9 26.552 9 26C9 25.448 9.447 25 10 25Z" fill="#374040"/>
</svg>
