<svg width="45" height="58" viewBox="0 0 45 58" fill="none" xmlns="http://www.w3.org/2000/svg">
<path d="M27.155 45.988C26.923 45.678 26.658 45.455 26.362 45.318C26.066 45.181 25.754 45.113 25.425 45.113C25.088 45.113 24.767 45.176 24.461 45.304C24.155 45.432 23.882 45.648 23.641 45.953C23.4 46.258 23.21 46.652 23.074 47.136C22.937 47.619 22.864 48.211 22.855 48.913C22.864 49.597 22.935 50.18 23.067 50.663C23.199 51.146 23.381 51.54 23.614 51.846C23.847 52.152 24.111 52.374 24.407 52.516C24.703 52.658 25.015 52.728 25.344 52.728C25.681 52.728 26.002 52.662 26.308 52.53C26.614 52.398 26.887 52.181 27.128 51.881C27.369 51.581 27.559 51.186 27.695 50.698C27.831 50.21 27.905 49.616 27.914 48.914C27.905 48.23 27.834 47.649 27.702 47.171C27.57 46.693 27.388 46.298 27.155 45.988Z" fill="#374040"/>
<path d="M45 39V13.978C45 13.212 44.908 12.645 44.45 12.186L32.813 0.55C32.464 0.201 31.98 0 31.485 0H2.463C1.277 0 0 0.916 0 2.926V39H45ZM23 33C23 33.552 22.553 34 22 34C21.447 34 21 33.552 21 33V30C21 29.448 21.447 29 22 29C22.553 29 23 29.448 23 30V33ZM31 3.391C31 2.933 31.553 2.704 31.877 3.028L41.972 13.123C42.296 13.447 42.067 14 41.609 14H31V3.391ZM30 24V20C30 19.449 29.552 19 29 19C28.447 19 28 18.552 28 18C28 17.448 28.447 17 29 17C30.654 17 32 18.346 32 20V24C32 25.103 32.897 26 34 26C34.553 26 35 26.448 35 27C35 27.552 34.553 28 34 28C32.897 28 32 28.897 32 30V34C32 35.654 30.654 37 29 37C28.447 37 28 36.552 28 36C28 35.448 28.447 35 29 35C29.552 35 30 34.551 30 34V30C30 28.8 30.542 27.734 31.382 27C30.542 26.266 30 25.2 30 24ZM22 22C22.828 22 23.5 22.672 23.5 23.5C23.5 24.328 22.828 25 22 25C21.172 25 20.5 24.328 20.5 23.5C20.5 22.672 21.172 22 22 22ZM10 26C11.103 26 12 25.103 12 24V20C12 18.346 13.346 17 15 17C15.553 17 16 17.448 16 18C16 18.552 15.553 19 15 19C14.448 19 14 19.449 14 20V24C14 25.2 13.458 26.266 12.618 27C13.458 27.734 14 28.8 14 30V34C14 34.551 14.448 35 15 35C15.553 35 16 35.448 16 36C16 36.552 15.553 37 15 37C13.346 37 12 35.654 12 34V30C12 28.897 11.103 28 10 28C9.447 28 9 27.552 9 27C9 26.448 9.447 26 10 26Z" fill="#374040"/>
<path d="M0 41V56C0 57.009 1.22 58 2.463 58H42.537C43.78 58 45 57.009 45 56V41H0ZM11.521 51.566C11.521 52.04 11.434 52.439 11.261 52.762C11.088 53.085 10.856 53.345 10.564 53.541C10.272 53.737 9.937 53.874 9.559 53.951C9.181 54.028 8.791 54.067 8.39 54.067C8.19 54.067 7.954 54.046 7.686 54.005C7.418 53.964 7.139 53.901 6.852 53.814C6.565 53.727 6.289 53.629 6.025 53.52C5.761 53.411 5.538 53.288 5.355 53.151L6.052 52.044C6.143 52.107 6.273 52.174 6.442 52.242C6.611 52.31 6.796 52.374 6.996 52.433C7.196 52.492 7.406 52.544 7.625 52.59C7.844 52.636 8.049 52.658 8.24 52.658C8.723 52.658 9.108 52.564 9.395 52.378C9.682 52.192 9.834 51.874 9.853 51.428V43.717H11.521V51.566ZM19.458 52.298C19.308 52.64 19.096 52.941 18.822 53.2C18.548 53.459 18.212 53.667 17.81 53.822C17.408 53.977 16.954 54.054 16.443 54.054C16.224 54.054 15.999 54.042 15.766 54.02C15.533 53.998 15.299 53.958 15.062 53.904C14.825 53.849 14.599 53.774 14.385 53.678C14.171 53.582 13.987 53.466 13.831 53.329L14.118 52.153C14.246 52.226 14.407 52.297 14.603 52.365C14.799 52.433 15.001 52.497 15.211 52.556C15.421 52.615 15.63 52.663 15.84 52.7C16.05 52.737 16.245 52.755 16.428 52.755C16.984 52.755 17.41 52.625 17.706 52.365C18.002 52.105 18.15 51.72 18.15 51.21C18.15 50.9 18.046 50.636 17.836 50.417C17.626 50.198 17.364 50 17.05 49.822C16.736 49.644 16.396 49.467 16.031 49.289C15.666 49.111 15.325 48.901 15.006 48.66C14.687 48.419 14.423 48.134 14.213 47.806C14.003 47.478 13.899 47.068 13.899 46.576C13.899 46.13 13.981 45.733 14.145 45.387C14.309 45.041 14.53 44.746 14.808 44.505C15.086 44.264 15.41 44.079 15.779 43.951C16.148 43.823 16.538 43.76 16.948 43.76C17.367 43.76 17.791 43.799 18.219 43.876C18.647 43.953 18.993 44.079 19.258 44.252C19.203 44.37 19.14 44.5 19.067 44.642C18.994 44.784 18.925 44.915 18.862 45.038C18.799 45.161 18.744 45.264 18.698 45.346C18.652 45.428 18.625 45.474 18.616 45.483C18.561 45.456 18.5 45.42 18.431 45.374C18.362 45.328 18.265 45.283 18.137 45.237C18.009 45.191 17.841 45.16 17.631 45.141C17.421 45.122 17.152 45.127 16.824 45.155C16.641 45.174 16.469 45.225 16.304 45.312C16.139 45.399 15.994 45.505 15.866 45.633C15.738 45.761 15.638 45.904 15.565 46.064C15.492 46.224 15.456 46.377 15.456 46.522C15.456 46.886 15.56 47.18 15.77 47.404C15.98 47.628 16.24 47.823 16.549 47.992C16.858 48.161 17.196 48.325 17.561 48.484C17.926 48.643 18.265 48.838 18.58 49.065C18.895 49.292 19.156 49.578 19.366 49.919C19.576 50.26 19.68 50.7 19.68 51.238C19.684 51.603 19.608 51.956 19.458 52.298ZM29.261 51.156C29.047 51.803 28.75 52.341 28.372 52.769C27.994 53.197 27.552 53.521 27.046 53.74C26.54 53.959 25.986 54.068 25.385 54.068C24.784 54.068 24.23 53.959 23.724 53.74C23.218 53.521 22.776 53.198 22.398 52.769C22.02 52.34 21.723 51.803 21.509 51.156C21.295 50.509 21.188 49.761 21.188 48.914C21.188 48.067 21.295 47.321 21.509 46.679C21.723 46.037 22.02 45.501 22.398 45.073C22.776 44.645 23.218 44.319 23.724 44.095C24.23 43.871 24.784 43.76 25.385 43.76C25.986 43.76 26.54 43.871 27.046 44.095C27.552 44.319 27.994 44.644 28.372 45.073C28.75 45.502 29.047 46.037 29.261 46.679C29.475 47.321 29.582 48.067 29.582 48.914C29.582 49.761 29.475 50.509 29.261 51.156ZM39.18 54H37.512L33.561 47.055V54H31.893V43.924H33.561L37.512 50.869V43.924H39.18V54Z" fill="#374040"/>
</svg>
