<svg width="23" height="22" viewBox="0 0 23 22" fill="none" xmlns="http://www.w3.org/2000/svg">
<path d="M21.6445 1.37501H15.7516L15.29 0.571492C15.1922 0.399709 15.0416 0.255209 14.8551 0.154247C14.6685 0.0532863 14.4535 -0.000130108 14.2342 7.53359e-06H8.62125C8.40242 -0.000728544 8.18777 0.0524887 8.00191 0.153562C7.81605 0.254636 7.66648 0.399477 7.57035 0.571492L7.10875 1.37501H1.21589C1.00751 1.37501 0.807656 1.44744 0.660306 1.57637C0.512956 1.7053 0.430176 1.88017 0.430176 2.06251L0.430176 3.43751C0.430176 3.61984 0.512956 3.79471 0.660306 3.92364C0.807656 4.05257 1.00751 4.12501 1.21589 4.12501H21.6445C21.8528 4.12501 22.0527 4.05257 22.2 3.92364C22.3474 3.79471 22.4302 3.61984 22.4302 3.43751V2.06251C22.4302 1.88017 22.3474 1.7053 22.2 1.57637C22.0527 1.44744 21.8528 1.37501 21.6445 1.37501V1.37501ZM3.04268 20.0664C3.08015 20.59 3.34427 21.0815 3.78127 21.4407C4.21828 21.7999 4.79531 21.9999 5.39491 22H17.4654C18.065 21.9999 18.6421 21.7999 19.0791 21.4407C19.5161 21.0815 19.7802 20.59 19.8177 20.0664L20.8587 5.50001H2.0016L3.04268 20.0664Z" fill="black"/>
</svg>
