<svg width="25" height="26" viewBox="0 0 25 26" fill="none" xmlns="http://www.w3.org/2000/svg">
<path d="M14.4531 19.7395H10.5469C9.89746 19.7395 9.375 19.217 9.375 18.5676V10.3645H5.09277C4.22363 10.3645 3.78906 9.3147 4.4043 8.69946L11.8311 1.26782C12.1973 0.901611 12.7979 0.901611 13.1641 1.26782L20.5957 8.69946C21.2109 9.3147 20.7764 10.3645 19.9072 10.3645H15.625V18.5676C15.625 19.217 15.1025 19.7395 14.4531 19.7395ZM25 19.3489V24.8176C25 25.467 24.4775 25.9895 23.8281 25.9895H1.17188C0.522461 25.9895 0 25.467 0 24.8176V19.3489C0 18.6995 0.522461 18.177 1.17188 18.177H7.8125V18.5676C7.8125 20.0764 9.03809 21.302 10.5469 21.302H14.4531C15.9619 21.302 17.1875 20.0764 17.1875 18.5676V18.177H23.8281C24.4775 18.177 25 18.6995 25 19.3489ZM18.9453 23.6458C18.9453 23.1086 18.5059 22.6692 17.9688 22.6692C17.4316 22.6692 16.9922 23.1086 16.9922 23.6458C16.9922 24.1829 17.4316 24.6223 17.9688 24.6223C18.5059 24.6223 18.9453 24.1829 18.9453 23.6458ZM22.0703 23.6458C22.0703 23.1086 21.6309 22.6692 21.0938 22.6692C20.5566 22.6692 20.1172 23.1086 20.1172 23.6458C20.1172 24.1829 20.5566 24.6223 21.0938 24.6223C21.6309 24.6223 22.0703 24.1829 22.0703 23.6458Z" fill="black"/>
</svg>
