<svg width="25" height="26" viewBox="0 0 25 26" fill="none" xmlns="http://www.w3.org/2000/svg">
<path d="M10.5469 0.993164H14.4531C15.1025 0.993164 15.625 1.51562 15.625 2.16504V10.3682H19.9072C20.7764 10.3682 21.2109 11.418 20.5957 12.0332L13.1689 19.4648C12.8027 19.8311 12.2021 19.8311 11.8359 19.4648L4.39941 12.0332C3.78418 11.418 4.21875 10.3682 5.08789 10.3682H9.375V2.16504C9.375 1.51562 9.89746 0.993164 10.5469 0.993164ZM25 19.3525V24.8213C25 25.4707 24.4775 25.9932 23.8281 25.9932H1.17188C0.522461 25.9932 0 25.4707 0 24.8213V19.3525C0 18.7031 0.522461 18.1807 1.17188 18.1807H8.33496L10.7275 20.5732C11.709 21.5547 13.291 21.5547 14.2725 20.5732L16.665 18.1807H23.8281C24.4775 18.1807 25 18.7031 25 19.3525ZM18.9453 23.6494C18.9453 23.1123 18.5059 22.6729 17.9688 22.6729C17.4316 22.6729 16.9922 23.1123 16.9922 23.6494C16.9922 24.1865 17.4316 24.626 17.9688 24.626C18.5059 24.626 18.9453 24.1865 18.9453 23.6494ZM22.0703 23.6494C22.0703 23.1123 21.6309 22.6729 21.0938 22.6729C20.5566 22.6729 20.1172 23.1123 20.1172 23.6494C20.1172 24.1865 20.5566 24.626 21.0938 24.626C21.6309 24.626 22.0703 24.1865 22.0703 23.6494Z" fill="black"/>
</svg>
