<svg width="23" height="22" viewBox="0 0 23 22" fill="none" xmlns="http://www.w3.org/2000/svg">
<path d="M1.5977 6.28571H3.95484V21.2143C3.95484 21.4227 4.03762 21.6225 4.18497 21.7699C4.33232 21.9172 4.53217 22 4.74056 22H6.31199C6.52037 22 6.72022 21.9172 6.86757 21.7699C7.01492 21.6225 7.0977 21.4227 7.0977 21.2143V6.28571H9.45484C10.1527 6.28571 10.5048 5.43911 10.0102 4.9446L6.08167 0.230312C5.93434 0.0830738 5.73457 0.000364171 5.52627 0.000364171C5.31798 0.000364171 5.11821 0.0830738 4.97087 0.230312L1.0423 4.9446C0.549263 5.43813 0.899397 6.28571 1.5977 6.28571ZM21.2406 12.5714H14.9548C14.7465 12.5714 14.5466 12.6542 14.3993 12.8016C14.2519 12.9489 14.1691 13.1488 14.1691 13.3571V14.9286C14.1691 15.137 14.2519 15.3368 14.3993 15.4842C14.5466 15.6315 14.7465 15.7143 14.9548 15.7143H17.7048L14.6965 19.1739C14.5307 19.3213 14.3979 19.5022 14.307 19.7047C14.2161 19.9072 14.1691 20.1266 14.1691 20.3485V21.2143C14.1691 21.4227 14.2519 21.6225 14.3993 21.7699C14.5466 21.9172 14.7465 22 14.9548 22H21.2406C21.4489 22 21.6488 21.9172 21.7961 21.7699C21.9435 21.6225 22.0263 21.4227 22.0263 21.2143V19.6429C22.0263 19.4345 21.9435 19.2346 21.7961 19.0873C21.6488 18.9399 21.4489 18.8571 21.2406 18.8571H18.4906L21.4989 15.3975C21.6647 15.2501 21.7975 15.0692 21.8884 14.8667C21.9793 14.6643 22.0263 14.4448 22.0263 14.2229V13.3571C22.0263 13.1488 21.9435 12.9489 21.7961 12.8016C21.6488 12.6542 21.4489 12.5714 21.2406 12.5714ZM22.7658 8.37866L19.8552 0.521518C19.8007 0.368875 19.7004 0.236822 19.5679 0.143457C19.4354 0.0500916 19.2773 -1.65661e-05 19.1152 4.10838e-09H17.0802C16.9181 -1.65661e-05 16.76 0.0500916 16.6275 0.143457C16.495 0.236822 16.3947 0.368875 16.3402 0.521518L13.4296 8.37866C13.3873 8.4972 13.374 8.62418 13.391 8.74889C13.408 8.87361 13.4547 8.99242 13.5272 9.09533C13.5997 9.19823 13.6958 9.28221 13.8075 9.34021C13.9192 9.3982 14.0433 9.42851 14.1691 9.42857H15.3885C15.5546 9.42863 15.7166 9.37599 15.8509 9.27822C15.9853 9.18045 16.0853 9.0426 16.1364 8.88446L16.3534 8.25H19.84L20.0566 8.88446C20.1078 9.04292 20.208 9.181 20.3428 9.2788C20.4776 9.3766 20.6399 9.42904 20.8065 9.42857H22.0263C22.1521 9.42851 22.2762 9.3982 22.3879 9.34021C22.4996 9.28221 22.5957 9.19823 22.6682 9.09533C22.7407 8.99242 22.7874 8.87361 22.8044 8.74889C22.8214 8.62418 22.8081 8.4972 22.7658 8.37866V8.37866ZM17.2928 5.5L18.0977 3.14286L18.9026 5.5H17.2928Z" fill="black"/>
</svg>
