<svg width="45" height="59" viewBox="0 0 45 59" fill="none" xmlns="http://www.w3.org/2000/svg">
<path d="M0 41.6394V56.6394C0 57.6484 1.22 58.6394 2.463 58.6394H42.537C43.78 58.6394 45 57.6484 45 56.6394V41.6394H0ZM20.521 52.2054C20.521 52.6794 20.434 53.0784 20.261 53.4014C20.087 53.7244 19.855 53.9844 19.564 54.1804C19.272 54.3764 18.937 54.5134 18.559 54.5904C18.181 54.6674 17.79 54.7064 17.39 54.7064C17.189 54.7064 16.954 54.6854 16.686 54.6444C16.418 54.6034 16.139 54.5404 15.852 54.4534C15.565 54.3664 15.289 54.2684 15.025 54.1594C14.76 54.0504 14.537 53.9274 14.355 53.7904L15.052 52.6834C15.143 52.7464 15.273 52.8134 15.442 52.8814C15.611 52.9494 15.795 53.0134 15.996 53.0724C16.196 53.1324 16.406 53.1834 16.625 53.2294C16.844 53.2754 17.049 53.2974 17.24 53.2974C17.722 53.2974 18.108 53.2034 18.395 53.0174C18.682 52.8314 18.834 52.5134 18.853 52.0674V44.3564H20.521V52.2054ZM28.458 52.9374C28.308 53.2794 28.096 53.5804 27.822 53.8394C27.548 54.0984 27.211 54.3064 26.81 54.4614C26.409 54.6164 25.953 54.6934 25.443 54.6934C25.224 54.6934 24.999 54.6814 24.766 54.6594C24.533 54.6374 24.298 54.5974 24.062 54.5434C23.825 54.4884 23.599 54.4134 23.385 54.3174C23.171 54.2214 22.986 54.1054 22.831 53.9684L23.118 52.7924C23.245 52.8654 23.407 52.9364 23.603 53.0044C23.799 53.0724 24.001 53.1364 24.211 53.1954C24.42 53.2554 24.63 53.3024 24.84 53.3394C25.049 53.3754 25.245 53.3944 25.428 53.3944C25.984 53.3944 26.41 53.2644 26.706 53.0044C27.002 52.7444 27.15 52.3594 27.15 51.8494C27.15 51.5394 27.045 51.2754 26.836 51.0564C26.626 50.8374 26.364 50.6394 26.05 50.4614C25.736 50.2834 25.396 50.1064 25.031 49.9284C24.666 49.7504 24.324 49.5404 24.006 49.2994C23.687 49.0584 23.422 48.7734 23.213 48.4454C23.003 48.1174 22.899 47.7074 22.899 47.2154C22.899 46.7694 22.981 46.3724 23.145 46.0264C23.309 45.6804 23.53 45.3854 23.808 45.1444C24.086 44.9034 24.41 44.7184 24.779 44.5904C25.148 44.4624 25.538 44.3994 25.948 44.3994C26.367 44.3994 26.791 44.4384 27.219 44.5154C27.647 44.5924 27.993 44.7184 28.258 44.8914C28.203 45.0094 28.139 45.1394 28.067 45.2814C27.994 45.4234 27.925 45.5544 27.862 45.6774C27.798 45.8004 27.743 45.9034 27.698 45.9854C27.652 46.0674 27.625 46.1134 27.616 46.1224C27.561 46.0954 27.5 46.0594 27.431 46.0134C27.362 45.9674 27.264 45.9224 27.137 45.8764C27.009 45.8304 26.84 45.7994 26.631 45.7804C26.421 45.7614 26.152 45.7664 25.824 45.7944C25.641 45.8134 25.469 45.8644 25.304 45.9514C25.139 46.0384 24.993 46.1444 24.866 46.2724C24.738 46.4004 24.637 46.5434 24.565 46.7034C24.492 46.8624 24.456 47.0164 24.456 47.1614C24.456 47.5254 24.56 47.8194 24.77 48.0434C24.979 48.2674 25.239 48.4624 25.549 48.6314C25.859 48.8004 26.195 48.9644 26.561 49.1234C26.925 49.2824 27.265 49.4774 27.58 49.7044C27.895 49.9314 28.156 50.2174 28.366 50.5584C28.575 50.9004 28.68 51.3394 28.68 51.8774C28.684 52.2424 28.608 52.5954 28.458 52.9374Z" fill="black"/>
<path d="M45 39.6394V14.6174C45 13.8514 44.908 13.2844 44.45 12.8254L32.813 1.1894C32.464 0.840404 31.98 0.639404 31.485 0.639404H2.463C1.277 0.639404 0 1.5554 0 3.5654V39.6394H45ZM23 32.6394C23 33.1914 22.553 33.6394 22 33.6394C21.447 33.6394 21 33.1914 21 32.6394V29.6394C21 29.0874 21.447 28.6394 22 28.6394C22.553 28.6394 23 29.0874 23 29.6394V32.6394ZM31 4.0304C31 3.5724 31.553 3.3434 31.877 3.6674L41.972 13.7624C42.296 14.0864 42.067 14.6394 41.609 14.6394H31V4.0304ZM30 23.6394V19.6394C30 19.0884 29.552 18.6394 29 18.6394C28.447 18.6394 28 18.1914 28 17.6394C28 17.0874 28.447 16.6394 29 16.6394C30.654 16.6394 32 17.9854 32 19.6394V23.6394C32 24.7424 32.897 25.6394 34 25.6394C34.553 25.6394 35 26.0874 35 26.6394C35 27.1914 34.553 27.6394 34 27.6394C32.897 27.6394 32 28.5364 32 29.6394V33.6394C32 35.2934 30.654 36.6394 29 36.6394C28.447 36.6394 28 36.1914 28 35.6394C28 35.0874 28.447 34.6394 29 34.6394C29.552 34.6394 30 34.1904 30 33.6394V29.6394C30 28.4394 30.542 27.3734 31.382 26.6394C30.542 25.9054 30 24.8394 30 23.6394ZM22 21.6394C22.828 21.6394 23.5 22.3114 23.5 23.1394C23.5 23.9674 22.828 24.6394 22 24.6394C21.172 24.6394 20.5 23.9674 20.5 23.1394C20.5 22.3114 21.172 21.6394 22 21.6394ZM10 25.6394C11.103 25.6394 12 24.7424 12 23.6394V19.6394C12 17.9854 13.346 16.6394 15 16.6394C15.553 16.6394 16 17.0874 16 17.6394C16 18.1914 15.553 18.6394 15 18.6394C14.448 18.6394 14 19.0884 14 19.6394V23.6394C14 24.8394 13.458 25.9054 12.618 26.6394C13.458 27.3734 14 28.4394 14 29.6394V33.6394C14 34.1904 14.448 34.6394 15 34.6394C15.553 34.6394 16 35.0874 16 35.6394C16 36.1914 15.553 36.6394 15 36.6394C13.346 36.6394 12 35.2934 12 33.6394V29.6394C12 28.5364 11.103 27.6394 10 27.6394C9.447 27.6394 9 27.1914 9 26.6394C9 26.0874 9.447 25.6394 10 25.6394Z" fill="black"/>
</svg>
