<svg width="45" height="59" viewBox="0 0 45 59" fill="none" xmlns="http://www.w3.org/2000/svg">
<path d="M27.155 46.6274C26.923 46.3174 26.658 46.0944 26.362 45.9574C26.066 45.8204 25.754 45.7524 25.425 45.7524C25.088 45.7524 24.767 45.8154 24.461 45.9434C24.155 46.0714 23.882 46.2874 23.641 46.5924C23.4 46.8974 23.21 47.2914 23.074 47.7754C22.937 48.2584 22.864 48.8504 22.855 49.5524C22.864 50.2364 22.935 50.8194 23.067 51.3024C23.199 51.7854 23.381 52.1794 23.614 52.4854C23.847 52.7914 24.111 53.0134 24.407 53.1554C24.703 53.2974 25.015 53.3674 25.344 53.3674C25.681 53.3674 26.002 53.3014 26.308 53.1694C26.614 53.0374 26.887 52.8204 27.128 52.5204C27.369 52.2204 27.559 51.8254 27.695 51.3374C27.831 50.8494 27.905 50.2554 27.914 49.5534C27.905 48.8694 27.834 48.2884 27.702 47.8104C27.57 47.3324 27.388 46.9374 27.155 46.6274Z" fill="black"/>
<path d="M45 39.6394V14.6174C45 13.8514 44.908 13.2844 44.45 12.8254L32.813 1.1894C32.464 0.840404 31.98 0.639404 31.485 0.639404H2.463C1.277 0.639404 0 1.5554 0 3.5654V39.6394H45ZM23 33.6394C23 34.1914 22.553 34.6394 22 34.6394C21.447 34.6394 21 34.1914 21 33.6394V30.6394C21 30.0874 21.447 29.6394 22 29.6394C22.553 29.6394 23 30.0874 23 30.6394V33.6394ZM31 4.0304C31 3.5724 31.553 3.3434 31.877 3.6674L41.972 13.7624C42.296 14.0864 42.067 14.6394 41.609 14.6394H31V4.0304ZM30 24.6394V20.6394C30 20.0884 29.552 19.6394 29 19.6394C28.447 19.6394 28 19.1914 28 18.6394C28 18.0874 28.447 17.6394 29 17.6394C30.654 17.6394 32 18.9854 32 20.6394V24.6394C32 25.7424 32.897 26.6394 34 26.6394C34.553 26.6394 35 27.0874 35 27.6394C35 28.1914 34.553 28.6394 34 28.6394C32.897 28.6394 32 29.5364 32 30.6394V34.6394C32 36.2934 30.654 37.6394 29 37.6394C28.447 37.6394 28 37.1914 28 36.6394C28 36.0874 28.447 35.6394 29 35.6394C29.552 35.6394 30 35.1904 30 34.6394V30.6394C30 29.4394 30.542 28.3734 31.382 27.6394C30.542 26.9054 30 25.8394 30 24.6394ZM22 22.6394C22.828 22.6394 23.5 23.3114 23.5 24.1394C23.5 24.9674 22.828 25.6394 22 25.6394C21.172 25.6394 20.5 24.9674 20.5 24.1394C20.5 23.3114 21.172 22.6394 22 22.6394ZM10 26.6394C11.103 26.6394 12 25.7424 12 24.6394V20.6394C12 18.9854 13.346 17.6394 15 17.6394C15.553 17.6394 16 18.0874 16 18.6394C16 19.1914 15.553 19.6394 15 19.6394C14.448 19.6394 14 20.0884 14 20.6394V24.6394C14 25.8394 13.458 26.9054 12.618 27.6394C13.458 28.3734 14 29.4394 14 30.6394V34.6394C14 35.1904 14.448 35.6394 15 35.6394C15.553 35.6394 16 36.0874 16 36.6394C16 37.1914 15.553 37.6394 15 37.6394C13.346 37.6394 12 36.2934 12 34.6394V30.6394C12 29.5364 11.103 28.6394 10 28.6394C9.447 28.6394 9 28.1914 9 27.6394C9 27.0874 9.447 26.6394 10 26.6394Z" fill="black"/>
<path d="M0 41.6394V56.6394C0 57.6484 1.22 58.6394 2.463 58.6394H42.537C43.78 58.6394 45 57.6484 45 56.6394V41.6394H0ZM11.521 52.2054C11.521 52.6794 11.434 53.0784 11.261 53.4014C11.088 53.7244 10.856 53.9844 10.564 54.1804C10.272 54.3764 9.937 54.5134 9.559 54.5904C9.181 54.6674 8.791 54.7064 8.39 54.7064C8.19 54.7064 7.954 54.6854 7.686 54.6444C7.418 54.6034 7.139 54.5404 6.852 54.4534C6.565 54.3664 6.289 54.2684 6.025 54.1594C5.761 54.0504 5.538 53.9274 5.355 53.7904L6.052 52.6834C6.143 52.7464 6.273 52.8134 6.442 52.8814C6.611 52.9494 6.796 53.0134 6.996 53.0724C7.196 53.1314 7.406 53.1834 7.625 53.2294C7.844 53.2754 8.049 53.2974 8.24 53.2974C8.723 53.2974 9.108 53.2034 9.395 53.0174C9.682 52.8314 9.834 52.5134 9.853 52.0674V44.3564H11.521V52.2054ZM19.458 52.9374C19.308 53.2794 19.096 53.5804 18.822 53.8394C18.548 54.0984 18.212 54.3064 17.81 54.4614C17.408 54.6164 16.954 54.6934 16.443 54.6934C16.224 54.6934 15.999 54.6814 15.766 54.6594C15.533 54.6374 15.299 54.5974 15.062 54.5434C14.825 54.4884 14.599 54.4134 14.385 54.3174C14.171 54.2214 13.987 54.1054 13.831 53.9684L14.118 52.7924C14.246 52.8654 14.407 52.9364 14.603 53.0044C14.799 53.0724 15.001 53.1364 15.211 53.1954C15.421 53.2544 15.63 53.3024 15.84 53.3394C16.05 53.3764 16.245 53.3944 16.428 53.3944C16.984 53.3944 17.41 53.2644 17.706 53.0044C18.002 52.7444 18.15 52.3594 18.15 51.8494C18.15 51.5394 18.046 51.2754 17.836 51.0564C17.626 50.8374 17.364 50.6394 17.05 50.4614C16.736 50.2834 16.396 50.1064 16.031 49.9284C15.666 49.7504 15.325 49.5404 15.006 49.2994C14.687 49.0584 14.423 48.7734 14.213 48.4454C14.003 48.1174 13.899 47.7074 13.899 47.2154C13.899 46.7694 13.981 46.3724 14.145 46.0264C14.309 45.6804 14.53 45.3854 14.808 45.1444C15.086 44.9034 15.41 44.7184 15.779 44.5904C16.148 44.4624 16.538 44.3994 16.948 44.3994C17.367 44.3994 17.791 44.4384 18.219 44.5154C18.647 44.5924 18.993 44.7184 19.258 44.8914C19.203 45.0094 19.14 45.1394 19.067 45.2814C18.994 45.4234 18.925 45.5544 18.862 45.6774C18.799 45.8004 18.744 45.9034 18.698 45.9854C18.652 46.0674 18.625 46.1134 18.616 46.1224C18.561 46.0954 18.5 46.0594 18.431 46.0134C18.362 45.9674 18.265 45.9224 18.137 45.8764C18.009 45.8304 17.841 45.7994 17.631 45.7804C17.421 45.7614 17.152 45.7664 16.824 45.7944C16.641 45.8134 16.469 45.8644 16.304 45.9514C16.139 46.0384 15.994 46.1444 15.866 46.2724C15.738 46.4004 15.638 46.5434 15.565 46.7034C15.492 46.8634 15.456 47.0164 15.456 47.1614C15.456 47.5254 15.56 47.8194 15.77 48.0434C15.98 48.2674 16.24 48.4624 16.549 48.6314C16.858 48.8004 17.196 48.9644 17.561 49.1234C17.926 49.2824 18.265 49.4774 18.58 49.7044C18.895 49.9314 19.156 50.2174 19.366 50.5584C19.576 50.8994 19.68 51.3394 19.68 51.8774C19.684 52.2424 19.608 52.5954 19.458 52.9374ZM29.261 51.7954C29.047 52.4424 28.75 52.9804 28.372 53.4084C27.994 53.8364 27.552 54.1604 27.046 54.3794C26.54 54.5984 25.986 54.7074 25.385 54.7074C24.784 54.7074 24.23 54.5984 23.724 54.3794C23.218 54.1604 22.776 53.8374 22.398 53.4084C22.02 52.9794 21.723 52.4424 21.509 51.7954C21.295 51.1484 21.188 50.4004 21.188 49.5534C21.188 48.7064 21.295 47.9604 21.509 47.3184C21.723 46.6764 22.02 46.1404 22.398 45.7124C22.776 45.2844 23.218 44.9584 23.724 44.7344C24.23 44.5104 24.784 44.3994 25.385 44.3994C25.986 44.3994 26.54 44.5104 27.046 44.7344C27.552 44.9584 27.994 45.2834 28.372 45.7124C28.75 46.1414 29.047 46.6764 29.261 47.3184C29.475 47.9604 29.582 48.7064 29.582 49.5534C29.582 50.4004 29.475 51.1484 29.261 51.7954ZM39.18 54.6394H37.512L33.561 47.6944V54.6394H31.893V44.5634H33.561L37.512 51.5084V44.5634H39.18V54.6394Z" fill="black"/>
</svg>
