<svg width="45" height="59" viewBox="0 0 45 59" fill="none" xmlns="http://www.w3.org/2000/svg">
<path d="M0 41.6394V56.6394C0 57.6484 1.22 58.6394 2.463 58.6394H42.537C43.78 58.6394 45 57.6484 45 56.6394V41.6394H0ZM12.96 51.3034C13.092 51.7864 13.274 52.1804 13.507 52.4864C13.74 52.7924 14.004 53.0144 14.3 53.1564C14.596 53.2984 14.908 53.3684 15.237 53.3684C15.566 53.3684 15.873 53.3084 16.16 53.1904C16.447 53.0724 16.709 52.8804 16.946 52.6164L18.081 53.6144C17.707 53.9784 17.283 54.2524 16.81 54.4344C16.337 54.6164 15.826 54.7074 15.279 54.7074C14.677 54.7074 14.124 54.5984 13.618 54.3794C13.112 54.1604 12.67 53.8374 12.292 53.4084C11.914 52.9794 11.617 52.4424 11.403 51.7954C11.189 51.1484 11.082 50.4004 11.082 49.5534C11.082 48.7064 11.189 47.9604 11.403 47.3184C11.617 46.6754 11.914 46.1404 12.292 45.7124C12.67 45.2844 13.114 44.9584 13.625 44.7344C14.136 44.5104 14.687 44.3994 15.279 44.3994C15.826 44.3994 16.337 44.4904 16.81 44.6724C17.283 44.8544 17.707 45.1284 18.081 45.4924L16.946 46.5044C16.718 46.2394 16.466 46.0484 16.187 45.9304C15.908 45.8124 15.62 45.7524 15.319 45.7524C14.982 45.7524 14.661 45.8154 14.355 45.9434C14.049 46.0714 13.776 46.2874 13.535 46.5924C13.294 46.8974 13.104 47.2914 12.968 47.7754C12.832 48.2594 12.758 48.8504 12.749 49.5524C12.757 50.2374 12.828 50.8204 12.96 51.3034ZM25.907 52.9374C25.757 53.2794 25.545 53.5804 25.271 53.8394C24.997 54.0984 24.661 54.3064 24.259 54.4614C23.857 54.6164 23.403 54.6934 22.892 54.6934C22.673 54.6934 22.448 54.6814 22.215 54.6594C21.982 54.6374 21.748 54.5974 21.511 54.5434C21.274 54.4894 21.048 54.4134 20.834 54.3174C20.62 54.2214 20.436 54.1054 20.28 53.9684L20.567 52.7924C20.695 52.8654 20.856 52.9364 21.052 53.0044C21.248 53.0724 21.45 53.1364 21.66 53.1954C21.87 53.2544 22.079 53.3024 22.289 53.3394C22.499 53.3764 22.694 53.3944 22.877 53.3944C23.433 53.3944 23.859 53.2644 24.155 53.0044C24.451 52.7444 24.599 52.3594 24.599 51.8494C24.599 51.5394 24.495 51.2754 24.285 51.0564C24.075 50.8374 23.813 50.6394 23.499 50.4614C23.185 50.2834 22.845 50.1064 22.48 49.9284C22.115 49.7504 21.774 49.5404 21.455 49.2994C21.136 49.0584 20.872 48.7734 20.662 48.4454C20.452 48.1174 20.348 47.7074 20.348 47.2154C20.348 46.7694 20.43 46.3724 20.594 46.0264C20.758 45.6804 20.979 45.3854 21.257 45.1444C21.535 44.9034 21.859 44.7184 22.228 44.5904C22.597 44.4624 22.987 44.3994 23.397 44.3994C23.816 44.3994 24.24 44.4384 24.668 44.5154C25.096 44.5924 25.442 44.7184 25.707 44.8914C25.652 45.0094 25.589 45.1394 25.516 45.2814C25.443 45.4234 25.374 45.5544 25.311 45.6774C25.248 45.8004 25.193 45.9034 25.147 45.9854C25.101 46.0674 25.074 46.1134 25.065 46.1224C25.01 46.0954 24.949 46.0594 24.88 46.0134C24.811 45.9674 24.714 45.9224 24.586 45.8764C24.458 45.8304 24.29 45.7994 24.08 45.7804C23.87 45.7614 23.601 45.7664 23.273 45.7944C23.09 45.8134 22.918 45.8644 22.753 45.9514C22.588 46.0384 22.443 46.1444 22.315 46.2724C22.187 46.4004 22.087 46.5434 22.014 46.7034C21.941 46.8634 21.905 47.0164 21.905 47.1614C21.905 47.5254 22.009 47.8194 22.219 48.0434C22.429 48.2674 22.689 48.4624 22.998 48.6314C23.307 48.8004 23.645 48.9644 24.01 49.1234C24.375 49.2824 24.714 49.4774 25.029 49.7044C25.344 49.9314 25.605 50.2174 25.815 50.5584C26.025 50.8994 26.129 51.3394 26.129 51.8774C26.133 52.2424 26.058 52.5954 25.907 52.9374ZM33.317 52.9374C33.167 53.2794 32.955 53.5804 32.681 53.8394C32.407 54.0984 32.071 54.3064 31.669 54.4614C31.267 54.6164 30.813 54.6934 30.302 54.6934C30.083 54.6934 29.858 54.6814 29.625 54.6594C29.392 54.6374 29.158 54.5974 28.921 54.5434C28.684 54.4894 28.458 54.4134 28.244 54.3174C28.03 54.2214 27.846 54.1054 27.69 53.9684L27.977 52.7924C28.105 52.8654 28.266 52.9364 28.462 53.0044C28.658 53.0724 28.86 53.1364 29.07 53.1954C29.28 53.2544 29.489 53.3024 29.699 53.3394C29.909 53.3764 30.104 53.3944 30.287 53.3944C30.843 53.3944 31.269 53.2644 31.565 53.0044C31.861 52.7444 32.009 52.3594 32.009 51.8494C32.009 51.5394 31.905 51.2754 31.695 51.0564C31.485 50.8374 31.223 50.6394 30.909 50.4614C30.595 50.2834 30.255 50.1064 29.89 49.9284C29.525 49.7504 29.184 49.5404 28.865 49.2994C28.546 49.0584 28.282 48.7734 28.072 48.4454C27.862 48.1174 27.758 47.7074 27.758 47.2154C27.758 46.7694 27.84 46.3724 28.004 46.0264C28.168 45.6804 28.389 45.3854 28.667 45.1444C28.945 44.9034 29.269 44.7184 29.638 44.5904C30.007 44.4624 30.397 44.3994 30.807 44.3994C31.226 44.3994 31.65 44.4384 32.078 44.5154C32.506 44.5924 32.852 44.7184 33.117 44.8914C33.062 45.0094 32.999 45.1394 32.926 45.2814C32.853 45.4234 32.784 45.5544 32.721 45.6774C32.658 45.8004 32.603 45.9034 32.557 45.9854C32.511 46.0674 32.484 46.1134 32.475 46.1224C32.42 46.0954 32.359 46.0594 32.29 46.0134C32.221 45.9674 32.124 45.9224 31.996 45.8764C31.868 45.8304 31.7 45.7994 31.49 45.7804C31.28 45.7614 31.011 45.7664 30.683 45.7944C30.5 45.8134 30.328 45.8644 30.163 45.9514C29.998 46.0384 29.853 46.1444 29.725 46.2724C29.597 46.4004 29.497 46.5434 29.424 46.7034C29.351 46.8634 29.315 47.0164 29.315 47.1614C29.315 47.5254 29.419 47.8194 29.629 48.0434C29.839 48.2674 30.099 48.4624 30.408 48.6314C30.717 48.8004 31.055 48.9644 31.42 49.1234C31.785 49.2824 32.124 49.4774 32.439 49.7044C32.754 49.9314 33.015 50.2174 33.225 50.5584C33.435 50.8994 33.539 51.3394 33.539 51.8774C33.543 52.2424 33.468 52.5954 33.317 52.9374Z" fill="black"/>
<path d="M45 39.6394V14.6174C45 13.8514 44.908 13.2844 44.45 12.8254L32.813 1.1894C32.464 0.840404 31.98 0.639404 31.485 0.639404H2.463C1.277 0.639404 0 1.5554 0 3.5654V39.6394H45ZM31 4.0304C31 3.5724 31.553 3.3434 31.877 3.6674L41.972 13.7624C42.296 14.0864 42.067 14.6394 41.609 14.6394H31V4.0304ZM30 23.6394V19.6394C30 19.0884 29.552 18.6394 29 18.6394C28.447 18.6394 28 18.1914 28 17.6394C28 17.0874 28.447 16.6394 29 16.6394C30.654 16.6394 32 17.9854 32 19.6394V23.6394C32 24.7424 32.897 25.6394 34 25.6394C34.553 25.6394 35 26.0874 35 26.6394C35 27.1914 34.553 27.6394 34 27.6394C32.897 27.6394 32 28.5364 32 29.6394V33.6394C32 35.2934 30.654 36.6394 29 36.6394C28.447 36.6394 28 36.1914 28 35.6394C28 35.0874 28.447 34.6394 29 34.6394C29.552 34.6394 30 34.1904 30 33.6394V29.6394C30 28.4394 30.542 27.3734 31.382 26.6394C30.542 25.9054 30 24.8394 30 23.6394ZM10 25.6394C11.103 25.6394 12 24.7424 12 23.6394V19.6394C12 17.9854 13.346 16.6394 15 16.6394C15.553 16.6394 16 17.0874 16 17.6394C16 18.1914 15.553 18.6394 15 18.6394C14.448 18.6394 14 19.0884 14 19.6394V23.6394C14 24.8394 13.458 25.9054 12.618 26.6394C13.458 27.3734 14 28.4394 14 29.6394V33.6394C14 34.1904 14.448 34.6394 15 34.6394C15.553 34.6394 16 35.0874 16 35.6394C16 36.1914 15.553 36.6394 15 36.6394C13.346 36.6394 12 35.2934 12 33.6394V29.6394C12 28.5364 11.103 27.6394 10 27.6394C9.447 27.6394 9 27.1914 9 26.6394C9 26.0874 9.447 25.6394 10 25.6394Z" fill="black"/>
</svg>
